<svg width="25" height="18" viewBox="0 0 25 18" fill="none" xmlns="http://www.w3.org/2000/svg">
<path d="M0.718764 13.4406C0.717609 13.2319 0.789441 13.0294 0.921832 12.868C1.05422 12.7067 1.23885 12.5967 1.44376 12.557C2.25884 12.384 2.98976 11.9362 3.51421 11.2887C4.03867 10.6412 4.32484 9.83325 4.32484 9C4.32484 8.16675 4.03867 7.35877 3.51421 6.71127C2.98976 6.06377 2.25884 5.61603 1.44376 5.44297C1.23885 5.40334 1.05422 5.29334 0.921832 5.13199C0.789441 4.97064 0.717609 4.76809 0.718764 4.55938V1.75C0.718764 1.50965 0.814243 1.27914 0.984198 1.10918C1.15415 0.93923 1.38466 0.84375 1.62501 0.84375H23.375C23.6154 0.84375 23.8459 0.93923 24.0158 1.10918C24.1858 1.27914 24.2813 1.50965 24.2813 1.75V4.55938C24.2824 4.76809 24.2106 4.97064 24.0782 5.13199C23.9458 5.29334 23.7612 5.40334 23.5563 5.44297C22.7412 5.61603 22.0103 6.06377 21.4858 6.71127C20.9614 7.35877 20.6752 8.16675 20.6752 9C20.6752 9.83325 20.9614 10.6412 21.4858 11.2887C22.0103 11.9362 22.7412 12.384 23.5563 12.557C23.7612 12.5967 23.9458 12.7067 24.0782 12.868C24.2106 13.0294 24.2824 13.2319 24.2813 13.4406V16.25C24.2813 16.4904 24.1858 16.7209 24.0158 16.8908C23.8459 17.0608 23.6154 17.1562 23.375 17.1562H1.62501C1.38466 17.1562 1.15415 17.0608 0.984198 16.8908C0.814243 16.7209 0.718764 16.4904 0.718764 16.25V13.4406Z" stroke="#0C385F" stroke-linecap="round" stroke-linejoin="round"/>
</svg>
