<svg width="65" height="52" viewBox="0 0 65 52" fill="none" xmlns="http://www.w3.org/2000/svg">
<path fill-rule="evenodd" clip-rule="evenodd" d="M0 4.58816C0 2.0536 2.06124 0 4.60725 0H59.8866C62.4288 0 64.4939 2.0536 64.4939 4.58816V16.822H61.4211V4.58816C61.4211 3.74458 60.734 3.0575 59.8866 3.0575H4.60725C3.75604 3.0575 3.06896 3.74458 3.06896 4.58816V41.2935C3.06896 42.1371 3.75604 42.8241 4.60725 42.8241H26.1052V45.8816H4.60725C2.06124 45.8816 0 43.828 0 41.2935V4.58816Z" fill="#B5D0C9"/>
<path fill-rule="evenodd" clip-rule="evenodd" d="M1.53442 10.707H62.9555V13.7645H1.53442V10.707Z" fill="#B5D0C9"/>
<path fill-rule="evenodd" clip-rule="evenodd" d="M9.21045 32.1167H24.5667V35.1742H9.21045V32.1167Z" fill="#B5D0C9"/>
<path fill-rule="evenodd" clip-rule="evenodd" d="M47.603 21.4103C39.9688 21.4103 33.7813 27.5749 33.7813 35.1748C33.7813 42.7785 39.9688 48.9431 47.603 48.9431C55.2334 48.9431 61.421 42.7785 61.421 35.1748C61.421 27.5749 55.2334 21.4103 47.603 21.4103ZM30.7085 35.1748C30.7085 25.8839 38.274 18.3528 47.603 18.3528C56.932 18.3528 64.4937 25.8839 64.4937 35.1748C64.4937 44.4694 56.932 52.0006 47.603 52.0006C38.274 52.0006 30.7085 44.4694 30.7085 35.1748Z" fill="#B5D0C9"/>
<path fill-rule="evenodd" clip-rule="evenodd" d="M46.5001 38.3653L53.264 28.9332L55.7604 30.712L48.0842 41.419C47.8437 41.7549 47.4773 41.9763 47.0688 42.0412C46.6604 42.1023 46.2443 41.9992 45.9122 41.7511L39.7705 37.1629L41.6142 34.7161L46.5001 38.3653Z" fill="#B5D0C9"/>
</svg>
