<svg width="30" height="37" viewBox="0 0 30 37" fill="none" xmlns="http://www.w3.org/2000/svg">
<path d="M2.75 36.6667C2.01667 36.6667 1.375 36.3917 0.825 35.8417C0.275 35.2917 0 34.65 0 33.9167V10.0833C0 9.35 0.275 8.70833 0.825 8.15833C1.375 7.60833 2.01667 7.33333 2.75 7.33333H7.79167V6.875C7.79167 4.95 8.45625 3.32292 9.78542 1.99375C11.1146 0.664584 12.7417 0 14.6667 0C16.5917 0 18.2188 0.664584 19.5479 1.99375C20.8771 3.32292 21.5417 4.95 21.5417 6.875V7.33333H26.5833C27.3167 7.33333 27.9583 7.60833 28.5083 8.15833C29.0583 8.70833 29.3333 9.35 29.3333 10.0833V33.9167C29.3333 34.65 29.0583 35.2917 28.5083 35.8417C27.9583 36.3917 27.3167 36.6667 26.5833 36.6667H2.75ZM2.75 33.9167H26.5833V10.0833H21.5417V14.2083C21.5417 14.6056 21.4118 14.934 21.1521 15.1938C20.8924 15.4535 20.5639 15.5833 20.1667 15.5833C19.7694 15.5833 19.441 15.4535 19.1812 15.1938C18.9215 14.934 18.7917 14.6056 18.7917 14.2083V10.0833H10.5417V14.2083C10.5417 14.6056 10.4118 14.934 10.1521 15.1938C9.89236 15.4535 9.56389 15.5833 9.16667 15.5833C8.76944 15.5833 8.44097 15.4535 8.18125 15.1938C7.92153 14.934 7.79167 14.6056 7.79167 14.2083V10.0833H2.75V33.9167ZM10.5417 7.33333H18.7917V6.875C18.7917 5.71389 18.3944 4.73611 17.6 3.94167C16.8056 3.14722 15.8278 2.75 14.6667 2.75C13.5056 2.75 12.5278 3.14722 11.7333 3.94167C10.9389 4.73611 10.5417 5.71389 10.5417 6.875V7.33333ZM2.75 33.9167V10.0833V33.9167Z" fill="#616161"/>
</svg>
