<svg width="33" height="33" viewBox="0 0 33 33" fill="none" xmlns="http://www.w3.org/2000/svg">
<circle cx="16.5" cy="16.5" r="16.5" fill="#21725E"/>
<path d="M16.5 3C16.0583 3 15.6166 3.02194 15.1763 3.06582C14.7375 3.10823 14.3002 3.17259 13.8658 3.25888C13.4329 3.34518 13.0043 3.45341 12.5816 3.58212C12.1575 3.70937 11.7421 3.85856 11.334 4.02822C10.9259 4.19642 10.5267 4.3851 10.1361 4.59426C9.74707 4.80195 9.36826 5.03012 8.99967 5.27584C8.63256 5.52156 8.27714 5.78337 7.93635 6.06419C7.5941 6.34502 7.26647 6.64193 6.95493 6.95347C6.64193 7.26647 6.34502 7.5941 6.06419 7.93635C5.78337 8.27714 5.52156 8.63256 5.27584 8.99967C5.03012 9.36679 4.80195 9.74561 4.59426 10.1361C4.3851 10.5267 4.19642 10.9259 4.02822 11.334C3.85856 11.7421 3.70937 12.1575 3.58212 12.5816C3.45341 13.0043 3.34518 13.4329 3.25888 13.8658C3.17259 14.3002 3.10823 14.7361 3.06582 15.1763C3.02194 15.6166 3 16.0583 3 16.5C3 16.9417 3.02194 17.3834 3.06582 17.8237C3.10823 18.2639 3.17259 18.6998 3.25888 19.1342C3.34518 19.5671 3.45341 19.9957 3.58212 20.4184C3.70937 20.8425 3.85856 21.2579 4.02822 21.666C4.19642 22.0741 4.3851 22.4733 4.59426 22.8639C4.80195 23.2544 5.03012 23.6332 5.27584 24.0003C5.52156 24.3674 5.78337 24.7229 6.06419 25.0637C6.34502 25.4059 6.64193 25.7335 6.95347 26.0465C7.26647 26.3581 7.5941 26.655 7.93635 26.9358C8.27714 27.2166 8.63256 27.4784 8.99967 27.7242C9.36679 27.9699 9.74561 28.198 10.1361 28.4057C10.5267 28.6149 10.9259 28.8036 11.334 28.9718C11.7421 29.1414 12.1575 29.2906 12.5816 29.4179C13.0043 29.5466 13.4329 29.6548 13.8658 29.7411C14.3002 29.8274 14.7361 29.8918 15.1763 29.9342C15.6166 29.9781 16.0583 30 16.5 30C16.9417 30 17.3834 29.9781 17.8237 29.9342C18.2639 29.8918 18.6998 29.8274 19.1342 29.7411C19.5671 29.6548 19.9957 29.5466 20.4184 29.4179C20.8425 29.2906 21.2579 29.1414 21.666 28.9718C22.0741 28.8036 22.4733 28.6149 22.8639 28.4057C23.2544 28.198 23.6332 27.9699 24.0003 27.7242C24.3674 27.4784 24.7229 27.2166 25.0637 26.9358C25.4059 26.655 25.7335 26.3581 26.0465 26.0465C26.3581 25.7335 26.655 25.4059 26.9358 25.0637C27.2166 24.7229 27.4784 24.3674 27.7242 24.0003C27.9699 23.6317 28.198 23.2544 28.4057 22.8639C28.6149 22.4733 28.8036 22.0741 28.9718 21.666C29.1414 21.2579 29.2906 20.8425 29.4179 20.4184C29.5466 19.9957 29.6548 19.5671 29.7411 19.1342C29.8274 18.6998 29.8918 18.2625 29.9342 17.8237C29.9781 17.3834 30 16.9417 30 16.5C30 16.0583 29.9766 15.6166 29.9342 15.1778C29.8903 14.7375 29.8245 14.3002 29.7382 13.8673C29.6519 13.4343 29.5437 13.0058 29.415 12.5831C29.2862 12.1604 29.1371 11.745 28.9689 11.3355C28.7992 10.9274 28.6105 10.5296 28.4014 10.1391C28.1922 9.75 27.9655 9.37118 27.7198 9.00406C27.4741 8.63548 27.2108 8.28153 26.9314 7.93927C26.6506 7.59848 26.3537 7.27086 26.0407 6.95932C25.7291 6.64632 25.4015 6.3494 25.0607 6.06858C24.7185 5.78922 24.3645 5.52595 23.9959 5.28023C23.6288 5.03451 23.25 4.8078 22.8609 4.59865C22.4704 4.38949 22.0726 4.20081 21.6645 4.03115C21.255 3.86295 20.8396 3.71376 20.4169 3.58505C19.9942 3.45634 19.5657 3.3481 19.1327 3.26181C18.6998 3.17551 18.2625 3.1097 17.8222 3.06582C17.3834 3.0234 16.9417 3 16.5 3ZM16.5 28.8094C16.0963 28.8094 15.6941 28.7904 15.2933 28.7509C14.8926 28.7114 14.4933 28.6515 14.0984 28.5739C13.7035 28.495 13.3129 28.397 12.9268 28.28C12.5407 28.1629 12.1619 28.0269 11.7889 27.8733C11.4174 27.7183 11.0532 27.5457 10.6978 27.357C10.3424 27.1669 9.99572 26.9592 9.66078 26.7354C9.32584 26.5116 9.0026 26.2718 8.69106 26.0158C8.37952 25.7599 8.08115 25.4893 7.79594 25.2041C7.51073 24.9189 7.24014 24.6205 6.98418 24.3089C6.72822 23.9974 6.48835 23.6742 6.26457 23.3392C6.04079 23.0043 5.8331 22.6591 5.64296 22.3022C5.45428 21.9468 5.28169 21.5826 5.12665 21.2111C4.97308 20.8381 4.83705 20.4593 4.72004 20.0732C4.60303 19.6871 4.50504 19.2965 4.42606 18.9016C4.34854 18.5067 4.28857 18.1074 4.24908 17.7067C4.20959 17.3059 4.19057 16.9037 4.19057 16.5C4.19057 16.0963 4.20959 15.6941 4.24908 15.2933C4.28857 14.8926 4.34854 14.4933 4.42606 14.0984C4.50504 13.7035 4.60303 13.3129 4.72004 12.9268C4.83705 12.5407 4.97308 12.1619 5.12665 11.7889C5.28169 11.4174 5.45428 11.0532 5.64296 10.6978C5.8331 10.3409 6.04079 9.99572 6.26457 9.66078C6.48835 9.32584 6.72822 9.0026 6.98418 8.69106C7.24014 8.37952 7.51073 8.08115 7.79594 7.79594C8.08115 7.51073 8.37952 7.24014 8.69106 6.98418C9.0026 6.72822 9.32584 6.48835 9.66078 6.26457C9.99572 6.04079 10.3409 5.8331 10.6978 5.64296C11.0532 5.45282 11.4174 5.28169 11.7889 5.12665C12.1619 4.97308 12.5407 4.83705 12.9268 4.72004C13.3129 4.60303 13.7035 4.50504 14.0984 4.42606C14.4933 4.34854 14.8926 4.28857 15.2933 4.24908C15.6941 4.20959 16.0963 4.19057 16.5 4.19057C16.9037 4.19057 17.3059 4.20959 17.7067 4.24908C18.1074 4.28857 18.5067 4.34854 18.9016 4.42606C19.2965 4.50504 19.6871 4.60303 20.0732 4.72004C20.4593 4.83705 20.8381 4.97308 21.2111 5.12665C21.5826 5.28169 21.9468 5.45282 22.3022 5.64296C22.6591 5.8331 23.0043 6.04079 23.3392 6.26457C23.6742 6.48835 23.9974 6.72822 24.3089 6.98418C24.6205 7.24014 24.9189 7.51073 25.2041 7.79594C25.4893 8.08115 25.7599 8.37952 26.0158 8.69106C26.2718 9.0026 26.5116 9.32584 26.7354 9.66078C26.9592 9.99572 27.1669 10.3409 27.357 10.6978C27.5457 11.0532 27.7183 11.4159 27.8733 11.7889C28.0269 12.1619 28.1629 12.5407 28.28 12.9268C28.397 13.3129 28.495 13.7035 28.5739 14.0984C28.6515 14.4933 28.7114 14.8926 28.7509 15.2933C28.7904 15.6941 28.8094 16.0963 28.8094 16.5C28.8094 16.9022 28.7889 17.3044 28.7495 17.7067C28.71 18.1074 28.65 18.5053 28.571 18.9002C28.492 19.2951 28.394 19.6856 28.277 20.0717C28.16 20.4579 28.024 20.8367 27.869 21.2082C27.7154 21.5811 27.5428 21.9453 27.3527 22.2993C27.1625 22.6547 26.9548 22.9999 26.731 23.3363C26.5073 23.6712 26.2674 23.9945 26.0114 24.306C25.7555 24.6175 25.4849 24.9159 25.2011 25.1997C24.9159 25.4849 24.6175 25.7555 24.306 26.0114C23.9945 26.2674 23.6712 26.5073 23.3363 26.731C23.0014 26.9548 22.6562 27.1625 22.3008 27.3527C21.9453 27.5428 21.5811 27.7154 21.2082 27.869C20.8367 28.024 20.4579 28.16 20.0717 28.277C19.6871 28.394 19.2965 28.492 18.9002 28.571C18.5053 28.65 18.1074 28.71 17.7067 28.7495C17.3059 28.7889 16.9037 28.8094 16.5 28.8094Z" fill="#FCFDFD"/>
<path d="M16.315 16.7793V7.61842C16.315 7.53637 16.2989 7.45736 16.2649 7.38291C16.231 7.30693 16.1842 7.24008 16.1228 7.18234C16.0614 7.12308 15.9903 7.07901 15.9095 7.0471C15.8288 7.01671 15.7447 7 15.6575 7C15.5703 7 15.4863 7.01671 15.4055 7.0471C15.3263 7.07901 15.2553 7.12308 15.1922 7.18234C15.1309 7.24008 15.084 7.30693 15.0501 7.38291C15.0178 7.45736 15 7.53637 15 7.61842V17.0346C15 17.2063 15.0646 17.3521 15.1939 17.4722L20.8772 22.8192C20.9386 22.8769 21.0097 22.921 21.0905 22.9529C21.1712 22.9848 21.2553 23 21.3425 23C21.4297 23 21.5137 22.9848 21.5945 22.9529C21.6737 22.921 21.7448 22.8769 21.8078 22.8192C21.8691 22.7614 21.916 22.6946 21.9499 22.6186C21.9822 22.5426 22 22.4636 22 22.3816C22 22.2995 21.9822 22.2205 21.9499 22.1461C21.916 22.0701 21.8691 22.0032 21.8078 21.9455L16.315 16.7793Z" fill="#FCFDFD"/>
</svg>
