<svg width="33" height="33" viewBox="0 0 33 33" fill="none" xmlns="http://www.w3.org/2000/svg">
<path d="M16.5 0C7.39578 0 0 7.39578 0 16.5C0 25.6042 7.39578 33 16.5 33C25.6042 33 33 25.6042 33 16.5C33 7.39578 25.6042 0 16.5 0ZM16.5 1.43516C24.8291 1.43516 31.5648 8.17094 31.5648 16.5C31.5648 24.8291 24.8291 31.5648 16.5 31.5648C8.17094 31.5648 1.43516 24.8291 1.43516 16.5C1.43516 8.17094 8.17094 1.43516 16.5 1.43516ZM17.6344 5.73891C15.7317 5.73891 14.288 6.36109 13.3994 7.46109C12.5108 8.56109 12.1962 10.0306 12.1962 11.6411V12.913H10.7611C10.6666 12.913 10.5738 12.9319 10.4861 12.968C10.3984 13.0041 10.3211 13.0556 10.2541 13.1227C10.187 13.1897 10.1337 13.2688 10.0977 13.3564C10.0616 13.4441 10.0427 13.5352 10.0427 13.6297V17.2167C10.0427 17.313 10.0616 17.4041 10.0977 17.4917C10.1337 17.5794 10.187 17.6567 10.2541 17.7255C10.3211 17.7925 10.3984 17.8441 10.4861 17.8802C10.5738 17.9163 10.6666 17.9352 10.7611 17.9352H12.1962V26.5427C12.1962 26.6389 12.2134 26.73 12.2495 26.8177C12.2873 26.9053 12.3389 26.9827 12.4059 27.0514C12.473 27.1184 12.5503 27.17 12.638 27.2061C12.7256 27.2422 12.8184 27.2611 12.913 27.2611H17.2167C17.313 27.2611 17.4041 27.2422 17.4917 27.2061C17.5794 27.17 17.6567 27.1184 17.7255 27.0514C17.7925 26.9827 17.8441 26.9053 17.8802 26.8177C17.9163 26.73 17.9352 26.6389 17.9352 26.5427V17.9352H20.8037C20.9756 17.9352 21.1269 17.8802 21.2592 17.7719C21.3916 17.6636 21.4741 17.5261 21.5084 17.3577L22.2252 13.7706C22.2458 13.6658 22.2441 13.5609 22.2183 13.4561C22.1908 13.353 22.1444 13.2584 22.0756 13.1759C22.0086 13.0917 21.9261 13.0281 21.8281 12.9817C21.7319 12.9353 21.6287 12.913 21.5222 12.913H17.9352V11.3403C17.9352 10.9914 17.9575 10.9948 18.0589 10.9295C18.1586 10.8642 18.523 10.7611 19.1623 10.7611H21.5222C21.6167 10.7611 21.7078 10.7422 21.7955 10.7061C21.8848 10.67 21.9622 10.6184 22.0292 10.5514C22.0963 10.4827 22.1478 10.4053 22.1839 10.3177C22.2217 10.23 22.2389 10.1389 22.2389 10.0427V7.17406C22.2389 7.02281 22.1959 6.88531 22.1083 6.76156C22.0206 6.63609 21.9055 6.55016 21.7628 6.49859C21.7628 6.49859 19.6969 5.73891 17.6344 5.73891ZM17.6344 7.17406C18.9905 7.17406 20.2503 7.54016 20.8037 7.71375V9.32594H19.1623C18.4112 9.32594 17.8011 9.38609 17.2769 9.72641C16.7544 10.0667 16.5 10.7181 16.5 11.3403V13.6297C16.5 13.7259 16.5189 13.817 16.555 13.9047C16.5911 13.9923 16.6427 14.0697 16.7097 14.1384C16.7767 14.2055 16.8558 14.257 16.9434 14.2931C17.0311 14.3292 17.1222 14.3481 17.2167 14.3481H20.6456L20.2159 16.5H17.2167C17.1222 16.5 17.0311 16.5189 16.9434 16.555C16.8558 16.5911 16.7767 16.6427 16.7097 16.7097C16.6427 16.7767 16.5911 16.8558 16.555 16.9434C16.5189 17.0311 16.5 17.1222 16.5 17.2167V25.8259H13.6297V17.2167C13.6297 17.1222 13.6125 17.0311 13.5764 16.9434C13.5386 16.8558 13.487 16.7767 13.42 16.7097C13.353 16.6427 13.2756 16.5911 13.188 16.555C13.1003 16.5189 13.0075 16.5 12.913 16.5H11.4778V14.3481H12.913C13.0075 14.3481 13.1003 14.3292 13.188 14.2931C13.2756 14.257 13.353 14.2055 13.42 14.1384C13.487 14.0697 13.5386 13.9923 13.5764 13.9047C13.6125 13.817 13.6297 13.7259 13.6297 13.6297V11.6411C13.6297 10.2214 13.9202 9.09734 14.5148 8.36344C15.1078 7.62953 16.0239 7.17406 17.6344 7.17406Z" fill="#FCFDFD"/>
</svg>
