<svg width="24" height="24" viewBox="0 0 24 24" fill="none" xmlns="http://www.w3.org/2000/svg">
<path d="M12 21C16.9706 21 21 16.9706 21 12C21 7.02944 16.9706 3 12 3C7.02944 3 3 7.02944 3 12C3 16.9706 7.02944 21 12 21Z" stroke="#9E9E9E" stroke-linecap="round" stroke-linejoin="round"/>
<path d="M20.0813 15.9751L14.9906 12.8438C14.903 12.7875 14.8035 12.7522 14.7 12.7407L12.5531 12.4501C12.393 12.4271 12.2297 12.4578 12.0889 12.5376C11.9481 12.6173 11.8377 12.7415 11.775 12.8907L10.4906 15.7688C10.4303 15.9027 10.4105 16.0513 10.4338 16.1963C10.4572 16.3413 10.5226 16.4763 10.6219 16.5844L12.3844 18.4876C12.4641 18.5751 12.5224 18.6799 12.555 18.7937C12.5875 18.9076 12.5933 19.0274 12.5719 19.1438L12.2063 21.0001" stroke="#9E9E9E" stroke-linecap="round" stroke-linejoin="round"/>
<path d="M6.09373 5.2124L5.24998 7.1999C5.17649 7.37635 5.17313 7.57419 5.2406 7.75303L6.31873 10.6218C6.36086 10.7413 6.43299 10.8481 6.52819 10.9318C6.6234 11.0155 6.7385 11.0734 6.86248 11.0999L8.86873 11.5312C8.98008 11.5537 9.08466 11.6018 9.17416 11.6718C9.26366 11.7418 9.33563 11.8316 9.38435 11.9343L9.7406 12.6749C9.8039 12.8001 9.90026 12.9056 10.0192 12.98C10.1382 13.0544 10.2753 13.0948 10.4156 13.0968H11.6812" stroke="#9E9E9E" stroke-linecap="round" stroke-linejoin="round"/>
<path d="M14.2969 3.29053L15.1688 4.86553C15.2493 5.0136 15.2782 5.18425 15.2511 5.35058C15.2239 5.51692 15.1422 5.6695 15.0188 5.78428L12.4969 8.0624C12.4547 8.10271 12.4074 8.13738 12.3563 8.16553L11.2031 8.80303C11.0932 8.86135 10.9713 8.89344 10.8469 8.89678H8.84065C8.69285 8.89753 8.54849 8.94139 8.42526 9.02299C8.30203 9.10459 8.20529 9.22038 8.1469 9.35615L7.36877 11.203" stroke="#9E9E9E" stroke-linecap="round" stroke-linejoin="round"/>
</svg>
