<svg width="76" height="55" viewBox="0 0 76 55" fill="none" xmlns="http://www.w3.org/2000/svg">
<path d="M43.1818 32.6562C40.303 32.6562 37.8561 31.6536 35.8409 29.6484C33.8258 27.6432 32.8182 25.2083 32.8182 22.3438C32.8182 19.4792 33.8258 17.0443 35.8409 15.0391C37.8561 13.0339 40.303 12.0312 43.1818 12.0312C46.0606 12.0312 48.5076 13.0339 50.5227 15.0391C52.5379 17.0443 53.5455 19.4792 53.5455 22.3438C53.5455 25.2083 52.5379 27.6432 50.5227 29.6484C48.5076 31.6536 46.0606 32.6562 43.1818 32.6562ZM15.5455 44.6875C14.1061 44.6875 12.8826 44.1862 11.875 43.1836C10.8674 42.181 10.3636 40.9635 10.3636 39.5312V5.15625C10.3636 3.72396 10.8674 2.50651 11.875 1.50391C12.8826 0.501302 14.1061 0 15.5455 0H70.8182C72.2576 0 73.4811 0.501302 74.4886 1.50391C75.4962 2.50651 76 3.72396 76 5.15625V39.5312C76 40.9635 75.4962 42.181 74.4886 43.1836C73.4811 44.1862 72.2576 44.6875 70.8182 44.6875H15.5455ZM24.1818 39.5312H62.1818C62.1818 37.125 63.0167 35.0911 64.6864 33.4297C66.3561 31.7682 68.4 30.9375 70.8182 30.9375V13.75C68.4 13.75 66.3561 12.9193 64.6864 11.2578C63.0167 9.59635 62.1818 7.5625 62.1818 5.15625H24.1818C24.1818 7.5625 23.347 9.59635 21.6773 11.2578C20.0076 12.9193 17.9636 13.75 15.5455 13.75V30.9375C17.9636 30.9375 20.0076 31.7682 21.6773 33.4297C23.347 35.0911 24.1818 37.125 24.1818 39.5312ZM65.6364 55H5.18182C3.74242 55 2.51894 54.4987 1.51136 53.4961C0.503788 52.4935 0 51.276 0 49.8438V10.3125H5.18182V49.8438H65.6364V55Z" fill="white"/>
</svg>
