<svg width="85" height="62" viewBox="0 0 85 62" fill="none" xmlns="http://www.w3.org/2000/svg">
<path d="M17.7727 62C14.6174 62 11.929 60.8842 9.70739 58.6526C7.4858 56.421 6.375 53.7204 6.375 50.5509H0V5.8216C0 4.26917 0.579546 2.9108 1.73864 1.74648C2.89773 0.582159 4.25 0 5.79545 0H61.7216V16.2034H71.8636L85 33.7653V50.5509H78.142C78.142 53.7204 77.0312 56.421 74.8097 58.6526C72.5881 60.8842 69.8996 62 66.7443 62C63.589 62 60.9006 60.8842 58.679 58.6526C56.4574 56.421 55.3466 53.7204 55.3466 50.5509H29.1705C29.1705 53.7204 28.0597 56.421 25.8381 58.6526C23.6165 60.8842 20.928 62 17.7727 62ZM17.7727 56.1784C19.3182 56.1784 20.6383 55.6286 21.733 54.5289C22.8277 53.4293 23.375 52.1033 23.375 50.5509C23.375 48.9984 22.8277 47.6724 21.733 46.5728C20.6383 45.4731 19.3182 44.9233 17.7727 44.9233C16.2273 44.9233 14.9072 45.4731 13.8125 46.5728C12.7178 47.6724 12.1705 48.9984 12.1705 50.5509C12.1705 52.1033 12.7178 53.4293 13.8125 54.5289C14.9072 55.6286 16.2273 56.1784 17.7727 56.1784ZM5.79545 44.7293H7.92045C9.01515 42.9828 10.3996 41.5921 12.0739 40.5571C13.7481 39.5222 15.6155 39.0047 17.6761 39.0047C19.7367 39.0047 21.6203 39.5383 23.3267 40.6056C25.0331 41.6729 26.4337 43.0475 27.5284 44.7293H55.9261V5.8216H5.79545V44.7293ZM66.7443 56.1784C68.2898 56.1784 69.6098 55.6286 70.7045 54.5289C71.7992 53.4293 72.3466 52.1033 72.3466 50.5509C72.3466 48.9984 71.7992 47.6724 70.7045 46.5728C69.6098 45.4731 68.2898 44.9233 66.7443 44.9233C65.1989 44.9233 63.8788 45.4731 62.7841 46.5728C61.6894 47.6724 61.142 48.9984 61.142 50.5509C61.142 52.1033 61.6894 53.4293 62.7841 54.5289C63.8788 55.6286 65.1989 56.1784 66.7443 56.1784ZM61.7216 36.385H79.6875L68.9659 22.025H61.7216V36.385Z" fill="white"/>
</svg>
