<svg width="64" height="64" viewBox="0 0 64 64" fill="none" xmlns="http://www.w3.org/2000/svg">
<path d="M21.92 39.76C20.6933 39.76 19.6667 39.3467 18.84 38.52C18.0133 37.6933 17.6 36.6667 17.6 35.44C17.6 34.2133 18.0133 33.1867 18.84 32.36C19.6667 31.5333 20.6933 31.12 21.92 31.12C23.1467 31.12 24.1733 31.5333 25 32.36C25.8267 33.1867 26.24 34.2133 26.24 35.44C26.24 36.6667 25.8267 37.6933 25 38.52C24.1733 39.3467 23.1467 39.76 21.92 39.76ZM42.16 39.76C40.9333 39.76 39.9067 39.3467 39.08 38.52C38.2533 37.6933 37.84 36.6667 37.84 35.44C37.84 34.2133 38.2533 33.1867 39.08 32.36C39.9067 31.5333 40.9333 31.12 42.16 31.12C43.3867 31.12 44.4133 31.5333 45.24 32.36C46.0667 33.1867 46.48 34.2133 46.48 35.44C46.48 36.6667 46.0667 37.6933 45.24 38.52C44.4133 39.3467 43.3867 39.76 42.16 39.76ZM32 59.2C39.5733 59.2 46 56.56 51.28 51.28C56.56 46 59.2 39.5733 59.2 32C59.2 30.6133 59.0933 29.2533 58.88 27.92C58.6667 26.5867 58.4 25.36 58.08 24.24C57.0133 24.5067 55.8533 24.6933 54.6 24.8C53.3467 24.9067 52.0533 24.96 50.72 24.96C45.5467 24.96 40.6533 23.8933 36.04 21.76C31.4267 19.6267 27.4933 16.5867 24.24 12.64C22.4267 16.96 19.8267 20.7333 16.44 23.96C13.0533 27.1867 9.17333 29.68 4.8 31.44V32C4.8 39.5733 7.44 46 12.72 51.28C18 56.56 24.4267 59.2 32 59.2ZM32 64C27.5733 64 23.4133 63.16 19.52 61.48C15.6267 59.8 12.24 57.52 9.36 54.64C6.48 51.76 4.2 48.3733 2.52 44.48C0.84 40.5867 0 36.4267 0 32C0 27.5733 0.84 23.4133 2.52 19.52C4.2 15.6267 6.48 12.24 9.36 9.36C12.24 6.48 15.6267 4.2 19.52 2.52C23.4133 0.84 27.5733 0 32 0C36.4267 0 40.5867 0.84 44.48 2.52C48.3733 4.2 51.76 6.48 54.64 9.36C57.52 12.24 59.8 15.6267 61.48 19.52C63.16 23.4133 64 27.5733 64 32C64 36.4267 63.16 40.5867 61.48 44.48C59.8 48.3733 57.52 51.76 54.64 54.64C51.76 57.52 48.3733 59.8 44.48 61.48C40.5867 63.16 36.4267 64 32 64ZM24.64 5.84C29.3333 11.3333 33.6667 15.0933 37.64 17.12C41.6133 19.1467 45.9733 20.16 50.72 20.16C52 20.16 53.0133 20.1333 53.76 20.08C54.5067 20.0267 55.3333 19.8667 56.24 19.6C53.84 15.28 50.5733 11.7333 46.44 8.96C42.3067 6.18667 37.4933 4.8 32 4.8C30.56 4.8 29.2 4.90667 27.92 5.12C26.64 5.33333 25.5467 5.57333 24.64 5.84ZM5.52 25.76C8.08 24.8 11 22.6267 14.28 19.24C17.56 15.8533 19.8933 11.76 21.28 6.96C16.64 9.04 13.1333 11.6933 10.76 14.92C8.38667 18.1467 6.64 21.76 5.52 25.76Z" fill="white"/>
</svg>
