<svg width="56" height="71" viewBox="0 0 56 71" fill="none" xmlns="http://www.w3.org/2000/svg">
<path d="M5.25 71C3.85 71 2.625 70.4675 1.575 69.4025C0.524999 68.3375 0 67.095 0 65.675V19.525C0 18.105 0.524999 16.8625 1.575 15.7975C2.625 14.7325 3.85 14.2 5.25 14.2H14.875V13.3125C14.875 9.585 16.1437 6.43438 18.6812 3.86063C21.2187 1.28688 24.325 0 28 0C31.675 0 34.7812 1.28688 37.3188 3.86063C39.8563 6.43438 41.125 9.585 41.125 13.3125V14.2H50.75C52.15 14.2 53.375 14.7325 54.425 15.7975C55.475 16.8625 56 18.105 56 19.525V65.675C56 67.095 55.475 68.3375 54.425 69.4025C53.375 70.4675 52.15 71 50.75 71H5.25ZM5.25 65.675H50.75V19.525H41.125V27.5125C41.125 28.2817 40.8771 28.9177 40.3813 29.4206C39.8854 29.9235 39.2583 30.175 38.5 30.175C37.7417 30.175 37.1146 29.9235 36.6187 29.4206C36.1229 28.9177 35.875 28.2817 35.875 27.5125V19.525H20.125V27.5125C20.125 28.2817 19.8771 28.9177 19.3813 29.4206C18.8854 29.9235 18.2583 30.175 17.5 30.175C16.7417 30.175 16.1146 29.9235 15.6187 29.4206C15.1229 28.9177 14.875 28.2817 14.875 27.5125V19.525H5.25V65.675ZM20.125 14.2H35.875V13.3125C35.875 11.0642 35.1167 9.17083 33.6 7.6325C32.0833 6.09417 30.2167 5.325 28 5.325C25.7833 5.325 23.9167 6.09417 22.4 7.6325C20.8833 9.17083 20.125 11.0642 20.125 13.3125V14.2ZM5.25 65.675V19.525V65.675Z" fill="white"/>
</svg>
