<svg width="31" height="31" viewBox="0 0 31 31" fill="none" xmlns="http://www.w3.org/2000/svg">
<path d="M15.4935 2.7922C19.6301 2.7922 20.1193 2.80673 21.7549 2.88102C23.2629 2.94884 24.0847 3.20077 24.6353 3.41717C25.3554 3.69655 25.8721 4.03568 26.4146 4.57991C26.9587 5.12253 27.2913 5.6393 27.5771 6.35955C27.787 6.90217 28.0389 7.72416 28.1131 9.23896C28.1874 10.8765 28.2019 11.3658 28.2019 15.5032C28.2019 19.6407 28.1874 20.13 28.1131 21.7675C28.0453 23.2758 27.7934 24.0978 27.5771 24.6485C27.2978 25.3672 26.9587 25.8839 26.4146 26.4282C25.8721 26.9708 25.3554 27.3034 24.6353 27.5893C24.0928 27.7992 23.271 28.0512 21.7549 28.1254C20.1193 28.2013 19.6301 28.2143 15.4935 28.2143C11.357 28.2143 10.8678 28.2013 9.23057 28.1254C7.72255 28.0576 6.90073 27.8073 6.35016 27.5893C5.63005 27.3115 5.115 26.9708 4.57089 26.4282C4.02839 25.8839 3.69578 25.3672 3.41 24.6485C3.19849 24.1043 2.94823 23.2823 2.87234 21.7675C2.79807 20.13 2.78516 19.6407 2.78516 15.5032C2.78516 11.3658 2.79807 10.8765 2.87234 9.23896C2.94177 7.73062 3.19203 6.90863 3.41 6.35955C3.68771 5.6393 4.02839 5.12253 4.57089 4.57991C5.115 4.03568 5.63005 3.70301 6.35016 3.41717C6.89427 3.20723 7.71609 2.9553 9.23057 2.88102C10.8678 2.80673 11.357 2.7922 15.4935 2.7922ZM15.4935 0C11.2827 0 10.7596 0.020994 9.10141 0.0952802C7.4513 0.169567 6.32432 0.434414 5.33943 0.815535C4.32062 1.20957 3.45682 1.73927 2.59464 2.60164C1.73891 3.46562 1.20932 4.32798 0.815364 5.347C0.434323 6.3321 0.169531 7.45931 0.0952605 9.10976C0.0209896 10.7618 0 11.2915 0 15.4968C0 19.7085 0.0209896 20.2317 0.0952605 21.8902C0.169531 23.5407 0.434323 24.6679 0.815364 25.653C1.20932 26.672 1.73891 27.5344 2.60109 28.3984C3.46328 29.2607 4.32708 29.7904 5.34589 30.1845C6.33078 30.5656 7.45776 30.8304 9.10786 30.9047C10.7596 30.979 11.2892 31 15.5 31C19.7108 31 20.234 30.979 21.8921 30.9047C23.5422 30.8304 24.6692 30.5656 25.6541 30.1845C26.6729 29.7904 27.5367 29.2607 28.3989 28.3984C29.2611 27.5344 29.7907 26.672 30.1846 25.653C30.5657 24.6679 30.8305 23.5407 30.9047 21.8902C30.979 20.2382 31 19.7085 31 15.4968C31 11.2851 30.979 10.7618 30.9047 9.1033C30.8305 7.45285 30.5657 6.32564 30.1846 5.34054C29.7907 4.32153 29.2611 3.45754 28.3989 2.59518C27.5367 1.73281 26.6729 1.20312 25.6541 0.809075C24.6692 0.427954 23.5422 0.163107 21.8921 0.0888205C20.234 0.020994 19.7044 0 15.4935 0Z" fill="#F5F6F7"/>
<path d="M15.4939 8C11.3529 8 8 11.3543 8 15.497C8 19.6396 11.359 23 15.5 23C19.641 23 23 19.6457 23 15.497C22.9939 11.3543 19.6349 8 15.4939 8ZM15.4939 20.3686C12.8058 20.3686 10.6303 18.1923 10.6303 15.503C10.6303 12.8138 12.8058 10.6375 15.4939 10.6375C18.182 10.6375 20.3575 12.8138 20.3575 15.503C20.3636 18.1862 18.182 20.3686 15.4939 20.3686Z" fill="#F5F6F7"/>
</svg>
