<svg width="304" height="259" viewBox="0 0 304 259" fill="none" xmlns="http://www.w3.org/2000/svg">
<circle cx="151.826" cy="129.5" r="129.5" fill="#C8EBE2"/>
<path d="M297.729 85.8691C266.716 86.1811 236.348 74.949 212.552 55.0224C206.291 49.7183 215.36 41.0031 221.33 46.2863C242.608 64.0497 269.857 73.701 297.729 73.389C305.55 73.389 305.55 85.8691 297.729 85.8691ZM5.88126 85.8691C36.8736 86.1811 67.2419 74.949 91.0581 55.0224C97.319 49.7183 88.2293 41.0031 82.2804 46.2863C60.981 64.0497 33.7535 73.701 5.88126 73.389C-1.96042 73.389 -1.96042 85.8691 5.88126 85.8691ZM289.263 152.846C286.143 150.974 282.69 152.534 280.818 155.03C271.417 167.177 256.087 174.956 240.736 174.956C224.762 175.268 210.056 167.801 199.718 155.966C194.394 149.726 185.616 158.753 190.941 164.681C203.462 179.324 222.578 188.04 241.984 187.416C261.724 186.792 279.882 176.828 291.78 161.249C293.34 158.753 291.78 154.406 289.263 152.846ZM107.324 152.846C104.204 150.974 100.751 152.534 98.879 155.03C89.4773 167.177 74.1476 174.956 58.797 174.956C42.8224 175.268 28.1167 167.801 17.779 155.966C12.4541 149.726 3.67644 158.753 9.00129 164.681C21.523 179.324 40.6384 188.04 60.045 187.416C79.7844 186.792 97.943 176.828 109.841 161.249C111.713 158.753 110.153 154.406 107.324 152.846ZM196.578 229.162C190.317 210.171 172.158 196.152 151.795 195.528C131.14 194.904 112.025 208.923 105.14 227.914C102.332 235.402 114.542 238.834 117.35 231.346C122.362 217.326 137.089 207.675 152.107 207.987C166.521 208.299 180.291 218.886 184.992 232.282C187.197 240.082 199.094 236.962 196.578 229.162Z" fill="black"/>
</svg>
