<svg xmlns="http://www.w3.org/2000/svg" xmlns:xlink="http://www.w3.org/1999/xlink" width="100" zoomAndPan="magnify" viewBox="0 0 75 74.999997" height="100" preserveAspectRatio="xMidYMid meet" version="1.0"><defs><clipPath id="37ca14574c"><path d="M 15.46875 0 L 59.71875 0 L 59.71875 70 L 15.46875 70 Z M 15.46875 0 " clip-rule="nonzero"/></clipPath></defs><path fill="#f9a72b" d="M 47.597656 70.707031 C 47.597656 73.027344 43.167969 74.914062 37.707031 74.914062 C 32.242188 74.914062 27.8125 73.027344 27.8125 70.707031 C 27.8125 68.382812 32.242188 66.5 37.707031 66.5 C 43.167969 66.5 47.597656 68.382812 47.597656 70.707031 " fill-opacity="1" fill-rule="nonzero"/><path fill="#ffce1c" d="M 47.394531 69.6875 C 47.394531 72.011719 43.011719 73.894531 37.605469 73.894531 C 32.199219 73.894531 27.8125 72.011719 27.8125 69.6875 C 27.8125 67.363281 32.199219 65.480469 37.605469 65.480469 C 43.011719 65.480469 47.394531 67.363281 47.394531 69.6875 " fill-opacity="1" fill-rule="nonzero"/><g clip-path="url(#37ca14574c)"><path fill="#03a756" d="M 37.980469 0.0859375 C 37.851562 0.0859375 37.722656 0.09375 37.59375 0.0976562 C 37.464844 0.09375 37.335938 0.0859375 37.203125 0.0859375 C 25.195312 0.0859375 15.457031 10.195312 15.457031 22.660156 C 15.457031 24.789062 16.289062 29.707031 17.53125 31.75 L 37.59375 69.6875 L 57.65625 31.75 C 58.898438 29.707031 59.726562 24.789062 59.726562 22.660156 C 59.726562 10.195312 49.992188 0.0859375 37.980469 0.0859375 " fill-opacity="1" fill-rule="nonzero"/></g><path fill="#ffffff" d="M 49.605469 20.148438 C 49.605469 26.75 44.226562 32.105469 37.59375 32.105469 C 30.960938 32.105469 25.582031 26.75 25.582031 20.148438 C 25.582031 13.542969 30.960938 8.1875 37.59375 8.1875 C 44.226562 8.1875 49.605469 13.542969 49.605469 20.148438 " fill-opacity="1" fill-rule="nonzero"/></svg>