<svg width="16" height="23" viewBox="0 0 16 23" fill="none" xmlns="http://www.w3.org/2000/svg">
<path d="M7.59375 16.3687C9.54375 14.7937 11.0156 13.2797 12.0094 11.8266C13.0031 10.3734 13.5 9.01875 13.5 7.7625C13.5 6.65625 13.2984 5.71875 12.8953 4.95C12.4922 4.18125 11.9953 3.55312 11.4047 3.06562C10.8141 2.57812 10.1719 2.22656 9.47813 2.01094C8.78438 1.79531 8.15625 1.6875 7.59375 1.6875C7.03125 1.6875 6.40312 1.79531 5.70937 2.01094C5.01562 2.22656 4.37344 2.57812 3.78281 3.06562C3.19219 3.55312 2.69531 4.18125 2.29219 4.95C1.88906 5.71875 1.6875 6.65625 1.6875 7.7625C1.6875 9.01875 2.18437 10.3734 3.17812 11.8266C4.17188 13.2797 5.64375 14.7937 7.59375 16.3687ZM7.59375 18.5063C5.025 16.575 3.11719 14.7281 1.87031 12.9656C0.623437 11.2031 0 9.46875 0 7.7625C0 6.4875 0.229688 5.36719 0.689063 4.40156C1.14844 3.43594 1.74375 2.625 2.475 1.96875C3.20625 1.3125 4.02187 0.820312 4.92188 0.492188C5.82188 0.164063 6.7125 0 7.59375 0C8.475 0 9.36563 0.164063 10.2656 0.492188C11.1656 0.820312 11.9812 1.3125 12.7125 1.96875C13.4437 2.625 14.0391 3.43594 14.4984 4.40156C14.9578 5.36719 15.1875 6.4875 15.1875 7.7625C15.1875 9.46875 14.5641 11.2031 13.3172 12.9656C12.0703 14.7281 10.1625 16.575 7.59375 18.5063ZM7.59375 9.5625C8.1375 9.5625 8.60156 9.37031 8.98594 8.98594C9.37031 8.60156 9.5625 8.1375 9.5625 7.59375C9.5625 7.05 9.37031 6.58594 8.98594 6.20156C8.60156 5.81719 8.1375 5.625 7.59375 5.625C7.05 5.625 6.58594 5.81719 6.20156 6.20156C5.81719 6.58594 5.625 7.05 5.625 7.59375C5.625 8.1375 5.81719 8.60156 6.20156 8.98594C6.58594 9.37031 7.05 9.5625 7.59375 9.5625ZM0 22.5V20.8125H15.1875V22.5H0Z" fill="#636D77"/>
</svg>
