<svg width="21" height="21" viewBox="0 0 21 21" fill="none" xmlns="http://www.w3.org/2000/svg">
<path d="M11.2787 1.26876L18.2787 4.76876C18.5703 4.91364 18.8157 5.13698 18.9872 5.41367C19.1588 5.69037 19.2498 6.00944 19.25 6.33501V14.6738C19.2498 14.9993 19.1588 15.3184 18.9872 15.5951C18.8157 15.8718 18.5703 16.0951 18.2787 16.24L11.2787 19.74C11.0356 19.8617 10.7675 19.925 10.4956 19.925C10.2237 19.925 9.95561 19.8617 9.71248 19.74L2.71248 16.24C2.42122 16.0933 2.17676 15.868 2.0067 15.5897C1.83663 15.3114 1.74771 14.9911 1.74998 14.665V6.33501C1.75015 6.00944 1.84115 5.69037 2.01273 5.41367C2.18431 5.13698 2.42967 4.91364 2.72123 4.76876L9.72123 1.26876C9.96322 1.14851 10.2298 1.08594 10.5 1.08594C10.7702 1.08594 11.0367 1.14851 11.2787 1.26876V1.26876Z" stroke="black" stroke-linecap="round" stroke-linejoin="round"/>
<path d="M2.03003 5.38965L10.5 9.62465L18.97 5.38965" stroke="black" stroke-linecap="round" stroke-linejoin="round"/>
<path d="M10.5 19.915V9.625" stroke="black" stroke-linecap="round" stroke-linejoin="round"/>
<path d="M6.125 3.0625L14.875 7.4375" stroke="black" stroke-linecap="round" stroke-linejoin="round"/>
</svg>
