<svg width="60" height="68" viewBox="0 0 60 68" fill="none" xmlns="http://www.w3.org/2000/svg">
<path d="M59.2465 17.5486C59.2465 17.1549 59.0373 16.7932 58.6968 16.5981L30.173 0.14629C29.8325 -0.0487634 29.414 -0.0487634 29.0736 0.14629L10.5967 10.8033C10.5967 10.8033 10.5967 10.8068 10.5932 10.8068L0.553242 16.5946C0.553242 16.5981 0.549696 16.5981 0.549696 16.5981C0.507139 16.623 0.464582 16.6513 0.425571 16.6797C0.15959 16.8854 0 17.2081 0 17.5486C0 17.5557 0 17.5663 0 17.5734V50.4523C0 50.8424 0.20924 51.2041 0.54615 51.3992L29.0736 67.8511C29.2438 67.9504 29.4318 68 29.6233 68C29.8112 68 29.9992 67.9504 30.1694 67.8511L58.6968 51.3992C59.0373 51.2041 59.2465 50.8424 59.2465 50.4523V17.5486ZM47.5398 24.9287V29.5284L40.9718 33.3124V28.7163L47.5398 24.9287ZM11.1677 13.0056L37.4963 28.1914L29.6233 32.7308L3.29463 17.5486L11.1677 13.0056ZM20.1118 7.84557L46.4404 23.0314L39.6916 26.9253L13.3629 11.7395L20.1118 7.84557ZM29.6233 2.3628L55.9519 17.5486L48.6356 21.7653L22.307 6.5795L29.6233 2.3628ZM2.19524 19.4495L28.5239 34.6317V65.0033L2.19524 49.821V19.4495ZM30.7191 65.0033V34.6317L38.7801 29.9823V35.2133C38.7801 35.6034 38.9894 35.9652 39.3263 36.1602C39.4965 36.2595 39.688 36.3092 39.876 36.3092C40.0639 36.3092 40.2554 36.2595 40.4257 36.1602L49.1853 31.1101C49.5258 30.9151 49.735 30.5533 49.735 30.1597V23.6662L57.0513 19.4459V49.8175L30.7191 65.0033ZM43.8622 42.1714C43.5217 41.9728 43.1032 41.9728 42.7628 42.1714L34.4003 46.9945C34.0598 47.1896 33.8506 47.5513 33.8506 47.9414V57.5913C33.8506 57.9814 34.0598 58.3431 34.4003 58.5417C34.5705 58.641 34.7585 58.6871 34.9465 58.6871C35.138 58.6871 35.3259 58.6374 35.4961 58.5417L43.8622 53.715C44.1991 53.52 44.4083 53.1582 44.4083 52.7646V43.1183C44.4083 42.7282 44.1991 42.3665 43.8622 42.1714ZM36.0458 55.6939V48.5762L42.2131 45.0192V52.1333L36.0458 55.6939ZM11.9798 51.002C11.7777 51.3531 11.4088 51.5517 11.0258 51.5517C10.8414 51.5517 10.6499 51.502 10.4797 51.4027L4.78767 48.1188C4.2628 47.8173 4.08193 47.147 4.38338 46.6222C4.68837 46.0973 5.35865 45.92 5.88352 46.2214L11.5755 49.5054C12.1004 49.8069 12.2813 50.4771 11.9798 51.002Z" fill="#B5D0C9"/>
</svg>
