<svg width="29" height="30" viewBox="0 0 29 30" fill="none" xmlns="http://www.w3.org/2000/svg">
<path d="M4.53125 13.1875H24.4688" stroke="#0C385F" stroke-linecap="round" stroke-linejoin="round"/>
<path d="M11.6453 17.7188H6.34375C5.86305 17.7188 5.40203 17.5278 5.06212 17.1879C4.72221 16.848 4.53125 16.387 4.53125 15.9062V7.75C4.53125 6.78859 4.91317 5.86656 5.59299 5.18674C6.27281 4.50692 7.19484 4.125 8.15625 4.125H24.4688V15.9062C24.4688 16.387 24.2778 16.848 23.9379 17.1879C23.598 17.5278 23.137 17.7188 22.6562 17.7188H17.3547C17.2254 17.7191 17.0977 17.7472 16.9801 17.801C16.8625 17.8549 16.7578 17.9332 16.6731 18.0309C16.5883 18.1285 16.5254 18.2432 16.4886 18.3672C16.4518 18.4911 16.442 18.6215 16.4598 18.7496L17.2188 24.0625C17.2187 24.7836 16.9323 25.4751 16.4224 25.9849C15.9126 26.4948 15.2211 26.7812 14.5 26.7812C13.7789 26.7812 13.0874 26.4948 12.5776 25.9849C12.0677 25.4751 11.7812 24.7836 11.7812 24.0625L12.5402 18.7496C12.558 18.6215 12.5482 18.4911 12.5114 18.3672C12.4746 18.2432 12.4117 18.1285 12.3269 18.0309C12.2422 17.9332 12.1375 17.8549 12.0199 17.801C11.9023 17.7472 11.7746 17.7191 11.6453 17.7188V17.7188Z" stroke="#0C385F" stroke-linecap="round" stroke-linejoin="round"/>
<path d="M20.8438 4.125V9.5625" stroke="#0C385F" stroke-linecap="round" stroke-linejoin="round"/>
</svg>
