<svg width="31" height="31" viewBox="0 0 31 31" fill="none" xmlns="http://www.w3.org/2000/svg">
<path d="M29.1056 31L17.7819 19.6764C16.9208 20.4227 15.9162 21.0039 14.7681 21.4201C13.6199 21.8363 12.4 22.0444 11.1083 22.0444C8.00833 22.0444 5.38194 20.9681 3.22917 18.8153C1.07639 16.6625 0 14.0648 0 11.0222C0 7.97963 1.07639 5.38194 3.22917 3.22917C5.38194 1.07639 7.99398 0 11.0653 0C14.1079 0 16.6984 1.07639 18.8368 3.22917C20.9752 5.38194 22.0444 7.97963 22.0444 11.0222C22.0444 12.2565 21.8435 13.4477 21.4417 14.5958C21.0398 15.744 20.437 16.8204 19.6333 17.825L31 29.1056L29.1056 31ZM11.0653 19.4611C13.3903 19.4611 15.3708 18.6359 17.0069 16.9854C18.6431 15.335 19.4611 13.3472 19.4611 11.0222C19.4611 8.69722 18.6431 6.70949 17.0069 5.05903C15.3708 3.40856 13.3903 2.58333 11.0653 2.58333C8.71157 2.58333 6.70949 3.40856 5.05903 5.05903C3.40856 6.70949 2.58333 8.69722 2.58333 11.0222C2.58333 13.3472 3.40856 15.335 5.05903 16.9854C6.70949 18.6359 8.71157 19.4611 11.0653 19.4611Z" fill="#616161"/>
</svg>
