<svg width="33" height="33" viewBox="0 0 33 33" fill="none" xmlns="http://www.w3.org/2000/svg">
<circle cx="16.5" cy="16.5" r="16.5" fill="#757575"/>
<path d="M25.7778 26L18.4722 18.6944C17.9167 19.1759 17.2685 19.5509 16.5278 19.8194C15.787 20.088 15 20.2222 14.1667 20.2222C12.1667 20.2222 10.4722 19.5278 9.08333 18.1389C7.69444 16.75 7 15.0741 7 13.1111C7 11.1481 7.69444 9.47222 9.08333 8.08333C10.4722 6.69444 12.1574 6 14.1389 6C16.1019 6 17.7731 6.69444 19.1528 8.08333C20.5324 9.47222 21.2222 11.1481 21.2222 13.1111C21.2222 13.9074 21.0926 14.6759 20.8333 15.4167C20.5741 16.1574 20.1852 16.8519 19.6667 17.5L27 24.7778L25.7778 26ZM14.1389 18.5556C15.6389 18.5556 16.9167 18.0231 17.9722 16.9583C19.0278 15.8935 19.5556 14.6111 19.5556 13.1111C19.5556 11.6111 19.0278 10.3287 17.9722 9.26389C16.9167 8.19907 15.6389 7.66667 14.1389 7.66667C12.6204 7.66667 11.3287 8.19907 10.2639 9.26389C9.19907 10.3287 8.66667 11.6111 8.66667 13.1111C8.66667 14.6111 9.19907 15.8935 10.2639 16.9583C11.3287 18.0231 12.6204 18.5556 14.1389 18.5556Z" fill="white"/>
</svg>
