<svg width="29" height="29" viewBox="0 0 29 29" fill="none" xmlns="http://www.w3.org/2000/svg">
<path d="M24.4688 5.4375H4.53125C4.03074 5.4375 3.625 5.84324 3.625 6.34375V22.6562C3.625 23.1568 4.03074 23.5625 4.53125 23.5625H24.4688C24.9693 23.5625 25.375 23.1568 25.375 22.6562V6.34375C25.375 5.84324 24.9693 5.4375 24.4688 5.4375Z" stroke="black" stroke-linecap="round" stroke-linejoin="round"/>
<path d="M3.625 9.0625H25.375" stroke="black" stroke-linecap="round" stroke-linejoin="round"/>
<path d="M19.0312 12.6875C19.0312 13.8893 18.5539 15.0418 17.7041 15.8916C16.8543 16.7414 15.7018 17.2188 14.5 17.2188C13.2982 17.2188 12.1457 16.7414 11.2959 15.8916C10.4461 15.0418 9.96875 13.8893 9.96875 12.6875" stroke="black" stroke-linecap="round" stroke-linejoin="round"/>
</svg>
