<svg width="62" height="63" viewBox="0 0 62 63" fill="none" xmlns="http://www.w3.org/2000/svg">
<path d="M30.9992 9.2959C19.0367 9.2959 9.29517 19.0374 9.29517 30.9999C9.29517 42.967 19.0367 52.704 30.9992 52.704C42.9662 52.704 52.7033 42.967 52.7033 30.9999C52.7033 19.0374 42.9662 9.2959 30.9992 9.2959ZM30.9992 49.6028C30.3898 49.6028 29.7849 49.5757 29.1755 49.5125C28.5706 49.4538 27.9702 49.3635 27.3698 49.2462C26.774 49.1288 26.1826 48.9798 25.6003 48.8038C25.018 48.6277 24.4447 48.4201 23.8804 48.1853C23.3161 47.9551 22.7699 47.6933 22.2327 47.4089C21.6955 47.12 21.1719 46.8085 20.6663 46.4699C20.1562 46.1314 19.6687 45.7657 19.1992 45.382C18.7297 44.9938 18.2783 44.5875 17.845 44.1542C17.4161 43.7253 17.0053 43.2739 16.6216 42.8045C16.2334 42.3305 15.8723 41.8429 15.5337 41.3374C15.1952 40.8273 14.8792 40.3081 14.5948 39.7709C14.3059 39.2338 14.0486 38.683 13.8138 38.1188C13.5791 37.559 13.376 36.9857 13.1999 36.3989C13.0193 35.8165 12.8749 35.2297 12.753 34.6293C12.6356 34.0335 12.5454 33.4286 12.4867 32.8237C12.428 32.2188 12.3964 31.6094 12.3964 30.9999C12.3964 30.3905 12.428 29.7856 12.4867 29.1762C12.5454 28.5713 12.6356 27.9709 12.753 27.3706C12.8749 26.7747 13.0193 26.1833 13.1999 25.601C13.376 25.0187 13.5791 24.4454 13.8138 23.8811C14.0486 23.3169 14.3059 22.7706 14.5948 22.2335C14.8792 21.6963 15.1952 21.1726 15.5337 20.667C15.8723 20.1569 16.2334 19.6694 16.6216 19.1999C17.0053 18.7305 17.4161 18.2791 17.845 17.8457C18.2783 17.4169 18.7297 17.0061 19.1992 16.6224C19.6687 16.2342 20.1562 15.873 20.6663 15.5345C21.1719 15.1959 21.6955 14.8799 22.2327 14.5955C22.7699 14.3066 23.3161 14.0493 23.8804 13.8146C24.4447 13.5798 25.018 13.3767 25.6003 13.2006C26.1826 13.0201 26.774 12.8756 27.3698 12.7537C27.9702 12.6364 28.5706 12.5461 29.1755 12.4874C29.7849 12.4287 30.3898 12.3971 30.9992 12.3971C31.6086 12.3971 32.218 12.4287 32.8229 12.4874C33.4278 12.5461 34.0327 12.6364 34.6286 12.7537C35.229 12.8756 35.8158 13.0201 36.3981 13.2006C36.985 13.3767 37.5583 13.5798 38.118 13.8146C38.6823 14.0493 39.233 14.3066 39.7702 14.5955C40.3074 14.8799 40.8265 15.1959 41.3366 15.5345C41.8422 15.873 42.3297 16.2342 42.8037 16.6224C43.2732 17.0061 43.7246 17.4169 44.1535 17.8457C44.5868 18.2791 44.9931 18.7305 45.3813 19.1999C45.765 19.6694 46.1306 20.1569 46.4692 20.667C46.8078 21.1726 47.1193 21.6963 47.4082 22.2335C47.6925 22.7706 47.9544 23.3169 48.1846 23.8811C48.4193 24.4454 48.627 25.0187 48.803 25.601C48.9791 26.1833 49.128 26.7747 49.2454 27.3706C49.3628 27.9709 49.4531 28.5713 49.5118 29.1762C49.575 29.7856 49.602 30.3905 49.602 30.9999C49.602 31.6094 49.5704 32.2188 49.5118 32.8237C49.4531 33.4286 49.3628 34.0335 49.2409 34.6293C49.1235 35.2252 48.9746 35.8165 48.7985 36.3989C48.6225 36.9812 48.4148 37.5545 48.1846 38.1188C47.9499 38.6785 47.688 39.2292 47.4036 39.7664C47.1147 40.3036 46.8033 40.8273 46.4647 41.3328C46.1261 41.8384 45.7605 42.326 45.3768 42.7999C44.9886 43.2694 44.5823 43.7208 44.1489 44.1497C43.7201 44.583 43.2687 44.9893 42.7992 45.3775C42.3252 45.7612 41.8377 46.1269 41.3321 46.4654C40.8265 46.804 40.3029 47.1155 39.7657 47.4044C39.2285 47.6888 38.6778 47.9506 38.118 48.1853C37.5538 48.4155 36.9805 48.6232 36.3981 48.7992C35.8158 48.9753 35.2245 49.1243 34.6286 49.2416C34.0327 49.3635 33.4278 49.4538 32.8229 49.5125C32.218 49.5712 31.6086 49.6028 30.9992 49.6028Z" fill="#B5D0C9"/>
<path d="M42.09 26.1239L35.4091 25.1082L32.3936 18.7117C31.888 17.6238 30.114 17.6238 29.6039 18.7117L26.5884 25.1082L19.9075 26.1239C19.6231 26.1736 19.3703 26.2909 19.1491 26.476C18.9324 26.6656 18.7744 26.8958 18.6841 27.1712C18.5938 27.4466 18.5758 27.7264 18.639 28.0063C18.7022 28.2907 18.8331 28.5345 19.0362 28.7466L23.9115 33.7483L22.7694 40.822C22.7153 41.1154 22.7469 41.3998 22.8597 41.6752C22.9726 41.9505 23.1531 42.1762 23.3924 42.3478C23.6361 42.5193 23.907 42.6096 24.2049 42.6277C24.5029 42.6412 24.7782 42.578 25.04 42.429L30.9987 39.1473L36.9619 42.429C37.1921 42.5599 37.4404 42.6231 37.7068 42.6277C38.0318 42.6231 38.3297 42.5284 38.596 42.3433C38.8398 42.1762 39.0204 41.9551 39.1377 41.6752C39.2506 41.3998 39.2822 41.1154 39.228 40.822L38.0905 33.7483L42.9657 28.7466C43.1644 28.5345 43.2953 28.2907 43.3585 28.0063C43.4217 27.7264 43.4081 27.4466 43.3133 27.1712C43.223 26.8958 43.0696 26.6656 42.8484 26.476C42.6272 26.2909 42.3744 26.1736 42.09 26.1239ZM35.3143 32.1413C34.9531 32.516 34.8177 32.9538 34.9035 33.4684L35.6664 38.1722L31.7481 36.0189C31.247 35.7346 30.7504 35.7346 30.2539 36.0189L26.3356 38.1722L27.094 33.4684C27.1843 32.9538 27.0488 32.516 26.6877 32.1413L23.3608 28.7466L27.8704 28.056C28.4166 27.9747 28.8094 27.6813 29.0396 27.1802L30.9987 23.0227L32.9579 27.1802C33.1926 27.6813 33.5808 27.9747 34.127 28.056L38.6367 28.7466L35.3143 32.1413Z" fill="#B5D0C9"/>
<path d="M59.2441 32.1141C59.0319 31.771 58.9236 31.4008 58.9236 30.9991C58.9236 30.5973 59.0319 30.2271 59.2441 29.8886L61.1852 26.8551C61.3793 26.5526 61.5418 26.2366 61.6682 25.8981C61.7946 25.564 61.8849 25.2164 61.9391 24.8643C61.9932 24.5077 62.0113 24.1511 61.9932 23.7945C61.9707 23.4379 61.9165 23.0858 61.8217 22.7382C61.7314 22.3906 61.605 22.0565 61.4425 21.736C61.28 21.4155 61.0859 21.1176 60.8602 20.8377C60.6345 20.5578 60.3862 20.305 60.1063 20.0748C59.8309 19.8491 59.533 19.6505 59.2125 19.488L56.0165 17.8358C55.6599 17.6507 55.38 17.3799 55.1814 17.0323C54.9782 16.6847 54.888 16.31 54.9015 15.9082L55.0685 12.3285C55.1046 11.5972 54.9918 10.893 54.73 10.2159C54.4681 9.53427 54.0799 8.9384 53.5608 8.42379C53.0462 7.9182 52.4458 7.5345 51.7732 7.27719C51.0961 7.01537 50.3964 6.90251 49.6741 6.9296L46.0944 7.09662C45.6926 7.11468 45.3179 7.0244 44.9658 6.82126C44.6183 6.61812 44.3519 6.34276 44.1623 5.98614L42.5147 2.78561C42.3476 2.46962 42.1535 2.17168 41.9233 1.89181C41.6976 1.61644 41.4448 1.36365 41.1649 1.13794C40.8851 0.91675 40.5826 0.722641 40.2621 0.560132C39.9416 0.397622 39.6075 0.271226 39.2645 0.176429C38.9169 0.0816308 38.5648 0.0274619 38.2036 0.00940409C37.847 -0.0131664 37.4904 0.00489127 37.1383 0.0635761C36.7817 0.117745 36.4386 0.208028 36.1001 0.334423C35.766 0.46082 35.4455 0.618815 35.1431 0.812924L32.1141 2.74498C31.7755 2.96166 31.4053 3.07 31.0036 3.07451C30.6018 3.07451 30.2271 2.97069 29.8886 2.75852L26.8551 0.812924C26.5526 0.618815 26.2366 0.46082 25.8981 0.334423C25.564 0.208028 25.2164 0.117745 24.8643 0.0635761C24.5077 0.00489127 24.1511 -0.0131664 23.7945 0.00940409C23.4379 0.0274619 23.0858 0.0816308 22.7382 0.176429C22.3906 0.271226 22.0565 0.397622 21.736 0.560132C21.4155 0.722641 21.1176 0.91675 20.8377 1.13794C20.5578 1.36365 20.305 1.61644 20.0748 1.89181C19.8491 2.17168 19.6505 2.46962 19.488 2.78561L17.8358 5.98614C17.6417 6.33373 17.3753 6.6091 17.0278 6.81223C16.6802 7.01086 16.3055 7.10565 15.9082 7.09662L12.3285 6.9296C11.6017 6.898 10.9021 7.01537 10.2249 7.27268C9.55232 7.5345 8.95646 7.9182 8.43733 8.42379C7.92271 8.9384 7.5345 9.53427 7.27268 10.2159C7.00634 10.893 6.89349 11.5972 6.9296 12.3285L7.09662 15.9082C7.11468 16.31 7.01988 16.6847 6.81675 17.0323C6.61812 17.3799 6.33825 17.6507 5.98614 17.8358L2.78561 19.488C2.46962 19.6505 2.17168 19.8491 1.89181 20.0748C1.61644 20.305 1.36365 20.5578 1.13794 20.8377C0.91675 21.1176 0.722641 21.4155 0.560132 21.736C0.397622 22.0565 0.271226 22.3906 0.176429 22.7382C0.0816308 23.0858 0.0274619 23.4379 0.00940409 23.7945C-0.0131664 24.1511 0.00489127 24.5077 0.0635761 24.8643C0.117745 25.2164 0.208028 25.564 0.334423 25.8981C0.46082 26.2366 0.618815 26.5526 0.812924 26.8551L2.75852 29.8886C2.97069 30.2271 3.07451 30.5973 3.07451 30.9991C3.07451 31.4008 2.97069 31.771 2.75852 32.1141L0.812924 35.1431C0.618815 35.4455 0.46082 35.766 0.334423 36.1001C0.208028 36.4386 0.117745 36.7817 0.0635761 37.1383C0.00489127 37.4904 -0.0131664 37.847 0.00940409 38.2036C0.0274619 38.5648 0.0816308 38.9169 0.176429 39.2645C0.271226 39.6075 0.397622 39.9416 0.560132 40.2621C0.722641 40.5826 0.91675 40.8851 1.13794 41.1649C1.36365 41.4448 1.61644 41.6976 1.89181 41.9233C2.17168 42.1535 2.46962 42.3476 2.78561 42.5147L5.98614 44.1623C6.33825 44.3519 6.61361 44.6183 6.81675 44.9613C7.01537 45.3089 7.11017 45.6791 7.09662 46.0808L6.9296 49.6741C6.91154 50.0307 6.93411 50.3873 6.9928 50.744C7.05148 51.0961 7.14628 51.4391 7.27268 51.7777C7.40359 52.1117 7.5661 52.4277 7.76472 52.7302C7.95883 53.0281 8.18454 53.308 8.43733 53.5608C8.69463 53.8136 8.97 54.0393 9.27245 54.2379C9.57038 54.432 9.89089 54.5945 10.2249 54.7254C10.559 54.8563 10.9021 54.9511 11.2587 55.0053C11.6108 55.064 11.9674 55.0866 12.3285 55.0685L15.9082 54.9015C16.3055 54.8925 16.6802 54.9827 17.0278 55.1859C17.3753 55.3845 17.6462 55.6644 17.8358 56.0165L19.488 59.2125C19.6505 59.533 19.8491 59.8309 20.0748 60.1063C20.305 60.3862 20.5578 60.6345 20.8377 60.8602C21.1176 61.0859 21.4155 61.28 21.736 61.4425C22.0565 61.605 22.3906 61.7314 22.7382 61.8217C23.0858 61.9165 23.4379 61.9707 23.7945 61.9932C24.1511 62.0113 24.5077 61.9932 24.8643 61.9391C25.2164 61.8849 25.564 61.7946 25.8981 61.6682C26.2366 61.5418 26.5526 61.3793 26.8551 61.1852L29.8886 59.2441C30.2271 59.0274 30.5973 58.9191 30.9991 58.9191C31.4008 58.9191 31.771 59.0274 32.1141 59.2441L35.1431 61.1852C35.9917 61.7314 36.9216 62.0068 37.9328 62.0023C38.3842 62.0068 38.8266 61.9436 39.26 61.8217C39.9597 61.6366 40.5961 61.3161 41.1649 60.8647C41.7292 60.4088 42.1806 59.858 42.5147 59.2125L44.1623 56.0165C44.528 55.3123 45.3766 54.888 46.0944 54.9015L49.6741 55.0685C50.3964 55.1046 51.1006 54.9873 51.7777 54.7254C52.4548 54.4636 53.0507 54.0754 53.5608 53.5608C54.0799 53.0507 54.4681 52.4548 54.73 51.7777C54.9918 51.1006 55.1046 50.4009 55.0685 49.6741L54.9015 46.0944C54.888 45.6926 54.9782 45.318 55.1814 44.9704C55.38 44.6183 55.6599 44.3519 56.0165 44.1623L59.2125 42.5147C59.533 42.3476 59.8309 42.1535 60.1063 41.9233C60.3862 41.6976 60.6345 41.4448 60.8602 41.1649C61.0859 40.8851 61.28 40.5826 61.4425 40.2621C61.605 39.9416 61.7314 39.6075 61.8217 39.2645C61.9165 38.9169 61.9707 38.5648 61.9932 38.2036C62.0113 37.847 61.9932 37.4904 61.9391 37.1383C61.8849 36.7817 61.7946 36.4386 61.6682 36.1001C61.5418 35.766 61.3793 35.4455 61.1852 35.1431L59.2441 32.1141ZM56.6349 33.7888L58.5805 36.8043C58.734 37.0525 58.8333 37.3144 58.8785 37.6033C58.9236 37.8877 58.9055 38.172 58.8333 38.4519C58.7566 38.7318 58.6302 38.9846 58.4496 39.2103C58.2645 39.436 58.0479 39.6166 57.7906 39.752L54.59 41.3997C54.1521 41.6299 53.7594 41.9143 53.4028 42.2574C53.0462 42.6004 52.7437 42.9841 52.5 43.413C52.2517 43.8418 52.0711 44.2932 51.9538 44.7762C51.8409 45.2547 51.7912 45.7423 51.8138 46.2343L51.9854 49.814C52.0034 50.4235 51.8003 50.9426 51.3805 51.3805C50.9561 51.8183 50.437 52.017 49.8276 51.9718L46.2343 51.8138C45.7423 51.7958 45.2547 51.8409 44.7762 51.9583C44.2977 52.0756 43.8418 52.2562 43.4175 52.5045C42.9886 52.7482 42.6004 53.0507 42.2619 53.4028C41.9188 53.7594 41.6299 54.1567 41.3997 54.59L39.752 57.7906C39.4766 58.3322 39.0433 58.6798 38.4564 58.8333C37.8696 58.9868 37.3189 58.901 36.8043 58.5805L33.7888 56.6349C33.3735 56.3686 32.9266 56.1655 32.4526 56.0255C31.9786 55.8856 31.4956 55.8179 30.9991 55.8179C30.507 55.8179 30.0195 55.8856 29.5455 56.0255C29.0715 56.1655 28.6246 56.3686 28.2093 56.6349L25.1939 58.5805C24.6792 58.8965 24.1285 58.9823 23.5462 58.8333C22.9548 58.6798 22.5215 58.3322 22.2461 57.7906L20.5985 54.59C19.6685 52.816 17.8493 51.7596 15.7638 51.8138L12.1705 51.9718C11.5611 52.0215 11.042 51.8228 10.6222 51.3805C10.2024 50.9471 9.99922 50.428 10.0173 49.8276L10.1843 46.2208C10.2069 45.7287 10.1572 45.2412 10.0399 44.7627C9.92248 44.2842 9.74192 43.8328 9.49815 43.4085C9.24987 42.9796 8.95194 42.5959 8.59532 42.2528C8.2387 41.9143 7.84597 41.6299 7.4081 41.3997L4.20757 39.752C3.95477 39.6166 3.73358 39.436 3.55301 39.2103C3.37245 38.9846 3.24154 38.7318 3.16931 38.4519C3.09257 38.172 3.07903 37.8877 3.11966 37.6033C3.1648 37.3144 3.26411 37.0525 3.42211 36.8043L5.36319 33.7888C5.62953 33.3735 5.83266 32.9266 5.9726 32.4526C6.10802 31.9786 6.18025 31.4956 6.18025 30.9991C6.18025 30.507 6.10802 30.0195 5.9726 29.5455C5.83266 29.0715 5.62953 28.6246 5.36319 28.2093L3.42211 25.1939C3.09257 24.6792 3.01132 24.133 3.1648 23.5462C3.31828 22.9548 3.66587 22.5215 4.20757 22.2461L7.4081 20.5985C7.84597 20.3682 8.24322 20.0838 8.59984 19.7408C8.95646 19.4022 9.25439 19.014 9.50267 18.5851C9.74643 18.1608 9.927 17.7049 10.0444 17.2264C10.1617 16.7434 10.2069 16.2604 10.1843 15.7638L10.0173 12.1705C9.99922 11.5701 10.2024 11.051 10.6222 10.6222C11.0465 10.2114 11.5385 9.97214 12.1705 10.0308L15.7638 10.1843C16.2604 10.2069 16.7434 10.1617 17.2264 10.0444C17.7049 9.927 18.1608 9.74643 18.5851 9.50267C19.014 9.25439 19.4022 8.95646 19.7408 8.59984C20.0838 8.24322 20.3682 7.84597 20.5985 7.4081L22.2461 4.20757C22.3815 3.95477 22.5621 3.73358 22.7878 3.55301C23.0135 3.37245 23.2663 3.24154 23.5462 3.16931C23.8261 3.09257 24.1105 3.07903 24.3994 3.11966C24.6838 3.1648 24.9501 3.26411 25.1939 3.42211L28.2093 5.36319C28.6246 5.62953 29.0715 5.83266 29.5455 5.9726C30.0195 6.10802 30.507 6.18025 30.9991 6.18025C31.4956 6.18025 31.9786 6.10802 32.4526 5.9726C32.9266 5.83266 33.3735 5.62953 33.7888 5.36319L36.8043 3.42211C37.0525 3.26411 37.3144 3.1648 37.6033 3.11966C37.8877 3.07903 38.172 3.09257 38.4519 3.16931C38.7318 3.24154 38.9846 3.37245 39.2103 3.55301C39.436 3.73358 39.6166 3.95477 39.752 4.20757L41.3997 7.4081C41.6299 7.84597 41.9143 8.24322 42.2574 8.59984C42.5959 8.95646 42.9841 9.2589 43.413 9.50267C43.8418 9.75095 44.2932 9.93151 44.7762 10.0444C45.2547 10.1617 45.7423 10.2069 46.2343 10.1843L49.8276 10.0308C50.437 9.98568 50.9516 10.1843 51.3805 10.6222C51.8003 11.051 51.9989 11.5701 51.9854 12.1705L51.8138 15.7638C51.7912 16.2604 51.8409 16.7434 51.9538 17.2264C52.0711 17.7049 52.2517 18.1608 52.5 18.5851C52.7437 19.014 53.0462 19.4022 53.4028 19.7408C53.7594 20.0838 54.1521 20.3682 54.59 20.5985L57.7906 22.2461C58.3322 22.5215 58.6798 22.9548 58.8333 23.5462C58.9913 24.133 58.9055 24.6792 58.5805 25.1939L56.6349 28.2093C56.3686 28.6246 56.1655 29.0715 56.03 29.5455C55.8901 30.0195 55.8224 30.507 55.8224 30.9991C55.8224 31.4956 55.8901 31.9786 56.03 32.4526C56.1655 32.9266 56.3686 33.3735 56.6349 33.7888Z" fill="#B5D0C9"/>
</svg>
