<svg width="27" height="27" viewBox="0 0 27 27" fill="none" xmlns="http://www.w3.org/2000/svg">
<path d="M12.941 2.73154L4.42971 4.42959L2.73167 12.9409C2.70506 13.0768 2.71231 13.2172 2.75277 13.3496C2.79324 13.482 2.86568 13.6025 2.9637 13.7003L13.9746 24.7112C14.0522 24.7906 14.1449 24.8537 14.2473 24.8968C14.3496 24.9399 14.4595 24.9621 14.5705 24.9621C14.6816 24.9621 14.7915 24.9399 14.8938 24.8968C14.9961 24.8537 15.0888 24.7906 15.1664 24.7112L24.7114 15.1663C24.7908 15.0887 24.8539 14.996 24.8969 14.8937C24.94 14.7914 24.9622 14.6814 24.9622 14.5704C24.9622 14.4594 24.94 14.3495 24.8969 14.2471C24.8539 14.1448 24.7908 14.0521 24.7114 13.9745L13.7004 2.96357C13.6026 2.86555 13.4822 2.79311 13.3497 2.75265C13.2173 2.71218 13.0769 2.70493 12.941 2.73154V2.73154Z" stroke="black" stroke-linecap="round" stroke-linejoin="round"/>
<path d="M8.85938 10.125C9.55836 10.125 10.125 9.55836 10.125 8.85938C10.125 8.16039 9.55836 7.59375 8.85938 7.59375C8.16039 7.59375 7.59375 8.16039 7.59375 8.85938C7.59375 9.55836 8.16039 10.125 8.85938 10.125Z" fill="black"/>
</svg>
