<svg width="35" height="31" viewBox="0 0 35 31" fill="none" xmlns="http://www.w3.org/2000/svg">
<path d="M32.4097 0.00270918C31.9576 0.0244263 31.5311 0.152919 31.1523 0.299509H31.1468C30.7624 0.449719 28.9375 1.2062 26.1663 2.35177C23.3952 3.50459 19.7967 4.99764 16.2256 6.48164C9.0927 9.4424 2.0824 12.3561 2.0824 12.3561L2.16659 12.3253C2.16659 12.3253 1.68338 12.481 1.1782 12.823C0.920115 12.9895 0.636409 13.2176 0.389309 13.5759C0.14221 13.9342 -0.0591301 14.4826 0.0159148 15.049C0.136719 16.0082 0.768195 16.5837 1.2203 16.9004C1.67789 17.2225 2.11351 17.3728 2.11351 17.3728H2.1245L8.69917 19.5553C8.99386 20.4892 10.7034 26.0288 11.1134 27.3047C11.355 28.0666 11.5911 28.5444 11.8858 28.9063C12.0286 29.0927 12.197 29.2484 12.3965 29.3732C12.4752 29.4203 12.5594 29.4565 12.6436 29.4873C12.6692 29.5036 12.6967 29.509 12.7278 29.5126L12.6601 29.4981C12.6802 29.5036 12.6967 29.518 12.7113 29.5235C12.7644 29.5397 12.801 29.5452 12.8706 29.5542C13.912 29.8655 14.7467 29.2285 14.7467 29.2285L14.7943 29.1923L18.6765 25.7067L25.1834 30.6292L25.3299 30.6908C26.6862 31.2771 28.0589 30.9495 28.7856 30.374C29.5159 29.7931 29.8014 29.0511 29.8014 29.0511L29.8472 28.9317L34.8771 3.53535C35.018 2.90737 35.0546 2.32101 34.8972 1.75093C34.7398 1.18086 34.3353 0.646983 33.8447 0.361041C33.3505 0.0696701 32.8618 -0.0171983 32.4097 0.00270918ZM32.2724 2.72639C32.2669 2.80964 32.2834 2.79878 32.2468 2.95985V2.97433L27.2664 28.1082C27.2444 28.1444 27.2078 28.2222 27.1072 28.3001C27.0028 28.3833 26.9186 28.434 26.4812 28.2639L18.5246 22.2482L13.7162 26.5681L14.7266 20.2086C14.7266 20.2086 27.1913 8.75288 27.7276 8.26063C28.2658 7.76657 28.0864 7.66341 28.0864 7.66341C28.123 7.06257 27.2755 7.48786 27.2755 7.48786L10.881 17.5012L10.8773 17.4759L3.01771 14.8681V14.8626C3.01405 14.8626 3.00307 14.8572 2.99758 14.8572C3.00307 14.8572 3.03968 14.8409 3.03968 14.8409L3.08178 14.821L3.12388 14.8047C3.12388 14.8047 10.1397 11.891 17.2726 8.92843C20.8436 7.44624 24.4403 5.95138 27.2078 4.80037C29.9735 3.6548 32.0199 2.81326 32.1352 2.76802C32.2468 2.72639 32.1937 2.72639 32.2724 2.72639Z" fill="#FCFDFD"/>
</svg>
