<svg width="25" height="25" viewBox="0 0 25 25" fill="none" xmlns="http://www.w3.org/2000/svg">
<path d="M3.125 6.25H5.20833H21.875" stroke="#A82525" stroke-width="2" stroke-linecap="round" stroke-linejoin="round"/>
<path d="M8.33337 6.25004V4.16671C8.33337 3.61417 8.55287 3.08427 8.94357 2.69357C9.33427 2.30287 9.86417 2.08337 10.4167 2.08337H14.5834C15.1359 2.08337 15.6658 2.30287 16.0565 2.69357C16.4472 3.08427 16.6667 3.61417 16.6667 4.16671V6.25004M19.7917 6.25004V20.8334C19.7917 21.3859 19.5722 21.9158 19.1815 22.3065C18.7908 22.6972 18.2609 22.9167 17.7084 22.9167H7.29171C6.73917 22.9167 6.20927 22.6972 5.81857 22.3065C5.42787 21.9158 5.20837 21.3859 5.20837 20.8334V6.25004H19.7917Z" stroke="#A82525" stroke-width="2" stroke-linecap="round" stroke-linejoin="round"/>
<path d="M10.4166 11.4584V17.7084" stroke="#A82525" stroke-width="2" stroke-linecap="round" stroke-linejoin="round"/>
<path d="M14.5834 11.4584V17.7084" stroke="#A82525" stroke-width="2" stroke-linecap="round" stroke-linejoin="round"/>
</svg>
