<svg width="94" height="94" viewBox="0 0 94 94" fill="none" xmlns="http://www.w3.org/2000/svg">
<path d="M32.195 58.3975C30.3933 58.3975 28.8854 57.7904 27.6712 56.5762C26.4571 55.3621 25.85 53.8542 25.85 52.0525C25.85 50.2508 26.4571 48.7429 27.6712 47.5287C28.8854 46.3146 30.3933 45.7075 32.195 45.7075C33.9967 45.7075 35.5046 46.3146 36.7188 47.5287C37.9329 48.7429 38.54 50.2508 38.54 52.0525C38.54 53.8542 37.9329 55.3621 36.7188 56.5762C35.5046 57.7904 33.9967 58.3975 32.195 58.3975ZM61.9225 58.3975C60.1208 58.3975 58.6129 57.7904 57.3987 56.5762C56.1846 55.3621 55.5775 53.8542 55.5775 52.0525C55.5775 50.2508 56.1846 48.7429 57.3987 47.5287C58.6129 46.3146 60.1208 45.7075 61.9225 45.7075C63.7242 45.7075 65.2321 46.3146 66.4463 47.5287C67.6604 48.7429 68.2675 50.2508 68.2675 52.0525C68.2675 53.8542 67.6604 55.3621 66.4463 56.5762C65.2321 57.7904 63.7242 58.3975 61.9225 58.3975ZM47 86.95C58.1233 86.95 67.5625 83.0725 75.3175 75.3175C83.0725 67.5625 86.95 58.1233 86.95 47C86.95 44.9633 86.7933 42.9658 86.48 41.0075C86.1667 39.0492 85.775 37.2475 85.305 35.6025C83.7383 35.9942 82.0346 36.2683 80.1937 36.425C78.3529 36.5817 76.4533 36.66 74.495 36.66C66.8967 36.66 59.7096 35.0933 52.9337 31.96C46.1579 28.8267 40.3808 24.3617 35.6025 18.565C32.9392 24.91 29.1204 30.4521 24.1462 35.1912C19.1721 39.9304 13.4733 43.5925 7.05 46.1775V47C7.05 58.1233 10.9275 67.5625 18.6825 75.3175C26.4375 83.0725 35.8767 86.95 47 86.95ZM47 94C40.4983 94 34.3883 92.7662 28.67 90.2987C22.9517 87.8312 17.9775 84.4825 13.7475 80.2525C9.5175 76.0225 6.16875 71.0483 3.70125 65.33C1.23375 59.6117 0 53.5017 0 47C0 40.4983 1.23375 34.3883 3.70125 28.67C6.16875 22.9517 9.5175 17.9775 13.7475 13.7475C17.9775 9.5175 22.9517 6.16875 28.67 3.70125C34.3883 1.23375 40.4983 0 47 0C53.5017 0 59.6117 1.23375 65.33 3.70125C71.0483 6.16875 76.0225 9.5175 80.2525 13.7475C84.4825 17.9775 87.8312 22.9517 90.2987 28.67C92.7662 34.3883 94 40.4983 94 47C94 53.5017 92.7662 59.6117 90.2987 65.33C87.8312 71.0483 84.4825 76.0225 80.2525 80.2525C76.0225 84.4825 71.0483 87.8312 65.33 90.2987C59.6117 92.7662 53.5017 94 47 94ZM36.19 8.5775C43.0833 16.6458 49.4479 22.1683 55.2837 25.145C61.1196 28.1217 67.5233 29.61 74.495 29.61C76.375 29.61 77.8633 29.5708 78.96 29.4925C80.0567 29.4142 81.2708 29.1792 82.6025 28.7875C79.0775 22.4425 74.2796 17.2333 68.2087 13.16C62.1379 9.08667 55.0683 7.05 47 7.05C44.885 7.05 42.8875 7.20667 41.0075 7.52C39.1275 7.83333 37.5217 8.18583 36.19 8.5775ZM8.1075 37.835C11.8675 36.425 16.1562 33.2329 20.9737 28.2587C25.7913 23.2846 29.2183 17.2725 31.255 10.2225C24.44 13.2775 19.2896 17.1746 15.8038 21.9137C12.3179 26.6529 9.7525 31.96 8.1075 37.835Z" fill="#616161"/>
</svg>
